<svg width="140" height="140" viewBox="0 0 140 140" fill="none" xmlns="http://www.w3.org/2000/svg">
<g clip-path="url(#clip0_544_1237)">
<path d="M90.4449 71.5462H87.3416V83.4414H90.4449C93.6959 83.4414 96.3409 86.0863 96.3409 89.3375V95.4174C96.3409 98.6687 93.6959 101.314 90.4449 101.314H70.8036C67.5526 101.314 64.9076 98.6687 64.9076 95.4174V58.2378H53.0125V95.4174C53.0125 105.227 60.9936 113.209 70.8036 113.209H90.4449C100.255 113.209 108.236 105.227 108.236 95.4174V89.3375C108.236 79.5275 100.255 71.5462 90.4449 71.5462Z" fill="#D97700"/>
<path d="M73.2963 40.3093C76.5473 40.3093 79.1923 42.9542 79.1923 46.2054V52.2853C79.1923 55.5366 76.5473 58.1815 73.2963 58.1815H70.193V70.0767H73.2963C83.1064 70.0767 91.0875 62.0953 91.0875 52.2853V46.2054C91.0875 36.3954 83.1064 28.4141 73.2963 28.4141H53.6552C43.8449 28.4141 35.8638 36.3954 35.8638 46.2054V92.9927H47.759V46.2054C47.759 42.9542 50.4039 40.3093 53.6552 40.3093H73.2963Z" fill="#D97700"/>
<path d="M91.9945 0H48.0055C21.5354 0 0 21.5358 0 48.006V91.995C0 118.465 21.5354 140 48.0055 140H91.9945C118.465 140 140 118.465 140 91.995V48.006C140 21.5358 118.465 0 91.9945 0ZM126.485 91.995C126.485 111.013 111.013 126.485 91.9945 126.485H48.0055C28.9872 126.485 13.5151 111.013 13.5151 91.995V48.006C13.5151 28.9872 28.9872 13.5151 48.0055 13.5151H91.9945C111.013 13.5151 126.485 28.9872 126.485 48.006V91.995Z" fill="#D97700"/>
</g>
<defs>
<clipPath id="clip0_544_1237">
<rect width="140" height="140" fill="white"/>
</clipPath>
</defs>
</svg>
